<svg width="24" height="24" viewBox="0 0 24 24" fill="none" xmlns="http://www.w3.org/2000/svg">
<path d="M9 11.25H4.5825C4.72189 10.3218 5.05334 9.43279 5.55569 8.63987C6.05804 7.84696 6.72024 7.16754 7.5 6.645L8.8425 5.745L8.0175 4.5L6.675 5.4C5.54496 6.15306 4.61828 7.17342 3.9772 8.37054C3.33612 9.56766 3.00046 10.9045 3 12.2625V17.25C3 17.6478 3.15804 18.0294 3.43934 18.3107C3.72064 18.592 4.10218 18.75 4.5 18.75H9C9.39782 18.75 9.77936 18.592 10.0607 18.3107C10.342 18.0294 10.5 17.6478 10.5 17.25V12.75C10.5 12.3522 10.342 11.9706 10.0607 11.6893C9.77936 11.408 9.39782 11.25 9 11.25ZM19.5 11.25H15.0825C15.2219 10.3218 15.5533 9.43279 16.0557 8.63987C16.558 7.84696 17.2202 7.16754 18 6.645L19.3425 5.745L18.525 4.5L17.175 5.4C16.045 6.15306 15.1183 7.17342 14.4772 8.37054C13.8361 9.56766 13.5005 10.9045 13.5 12.2625V17.25C13.5 17.6478 13.658 18.0294 13.9393 18.3107C14.2206 18.592 14.6022 18.75 15 18.75H19.5C19.8978 18.75 20.2794 18.592 20.5607 18.3107C20.842 18.0294 21 17.6478 21 17.25V12.75C21 12.3522 20.842 11.9706 20.5607 11.6893C20.2794 11.408 19.8978 11.25 19.5 11.25Z" fill="black"/>
</svg>
